<?xml version="1.0" encoding="utf-8"?>
<!-- Generator: Adobe Illustrator 16.0.0, SVG Export Plug-In . SVG Version: 6.00 Build 0)  -->
<!DOCTYPE svg PUBLIC "-//W3C//DTD SVG 1.1//EN" "http://www.w3.org/Graphics/SVG/1.1/DTD/svg11.dtd">
<svg version="1.1" xmlns="http://www.w3.org/2000/svg" xmlns:xlink="http://www.w3.org/1999/xlink" x="0px" y="0px" width="690px"
	 height="531px" viewBox="0 0 690 531" enable-background="new 0 0 690 531" xml:space="preserve">

<g id="ciel"> <!--lune_1_-->
	<g id="lune_1_">
		<path id="fil_lune" fill="none" stroke="#0A0A0A" stroke-miterlimit="10" d="M30,0c0,16.582,4.025,30,9,30"/>
		<path id="lune" fill="#F4CD27" stroke="#000000" stroke-miterlimit="10" d="M56.557,64.34
			c9.938,22.335,37.92,27.928,17.023,37.227c-20.896,9.298-45.894-1.27-55.833-23.605C7.81,55.628,16.693,29.983,37.59,20.685
			C58.486,11.387,46.619,42.005,56.557,64.34z"/>
	</g>
	<g id="stard">
		<path id="fil_étoile_droite" fill="none" stroke="#0A0A0A" stroke-miterlimit="10" d="M230,0c0,17.688,5.814,32,13,32"/>
		<polygon id="starDROITE" fill="#FFA624" stroke="#000000" stroke-miterlimit="10" points="279,59 257.353,52.651 239.851,66.884
			239.2,44.334 220.255,32.087 241.5,24.5 247.293,2.698 261.074,20.558 283.6,19.331 270.872,37.957 		"/>
	</g>
	<g id="starg">
		<path id="fil_étoile_mid" fill="none" stroke="#0A0A0A" stroke-miterlimit="10" d="M136,0c0,33.717,7.604,61,17,61"/>
		<polygon id="star_1_" fill="#F4CD27" stroke="#000000" stroke-miterlimit="10" points="187,78 169.792,74.644 157.272,86.917
			155.147,69.514 139.606,61.399 155.5,54 158.415,36.712 170.364,49.542 187.706,46.972 179.197,62.3 		"/>
	</g>
</g>



<g id="lapinouu">
	<g id="lapin">
		<path id="CORPS" fill="#DBCCCC" d="M282.1,333.529c0.001-0.09,0.006-0.178,0.006-0.268c0-19.511-12.609-35.327-28.166-35.327
			c-15.556,0-28.166,15.816-28.166,35.327c0,1.463,0.08,2.902,0.218,4.32c-3.167,4.313-4.991,9.368-4.991,14.774
			C221,368.176,236.603,381,255.85,381c19.246,0,34.85-12.824,34.85-28.644C290.699,345.146,287.45,338.564,282.1,333.529z"/>
		<ellipse id="head" fill="#DBCCCC" cx="253.179" cy="290.49" rx="24.585" ry="19.334"/>
		<g id="noreille">
			<path id="noreille" fill="#DBCCCC" d="M234.799,270.679c0-12.656,2.252-31.508,6.206-31.508c3.955,0,7.161,10.259,7.161,22.915
			s-0.819,15.276-4.773,15.276C239.438,277.362,234.799,283.334,234.799,270.679z"/>
		</g>
		<path id="noreille_1_" fill="#DBCCCC" d="M255.809,262.658c0-13.763-1.131-24.919,2.975-24.919c4.104,0,9.91,14.791,9.91,28.553
			c0,13.762-3.328,12.979-7.434,12.979S255.809,276.42,255.809,262.658z"/>
	
	</g>
</g>

</svg>
